<mxfile host="app.diagrams.net" agent="Mozilla/5.0 (Macintosh; Intel Mac OS X 10_15_7) AppleWebKit/537.36 (KHTML, like Gecko) Chrome/135.0.0.0 Safari/537.36" version="27.0.2">
  <diagram name="第 1 页" id="LDY6bGOpKqUVbtN2Xwsf">
    <mxGraphModel dx="1426" dy="766" grid="1" gridSize="10" guides="1" tooltips="1" connect="1" arrows="1" fold="1" page="1" pageScale="1" pageWidth="827" pageHeight="1169" math="0" shadow="0">
      <root>
        <mxCell id="0" />
        <mxCell id="1" parent="0" />
        <mxCell id="5o9evlOY7vxnB9uBkV90-20" style="edgeStyle=orthogonalEdgeStyle;rounded=0;orthogonalLoop=1;jettySize=auto;html=1;exitX=0.5;exitY=0;exitDx=0;exitDy=0;entryX=0.5;entryY=1;entryDx=0;entryDy=0;" parent="1" source="5o9evlOY7vxnB9uBkV90-2" target="5o9evlOY7vxnB9uBkV90-19" edge="1">
          <mxGeometry relative="1" as="geometry">
            <Array as="points">
              <mxPoint x="95" y="182" />
              <mxPoint x="230" y="182" />
            </Array>
          </mxGeometry>
        </mxCell>
        <mxCell id="5o9evlOY7vxnB9uBkV90-2" value="SoftMax" style="rounded=0;whiteSpace=wrap;html=1;fontFamily=Times New Roman;fontSize=30;fontStyle=2;fillColor=#dae8fc;strokeColor=#82b366;" parent="1" vertex="1">
          <mxGeometry y="202" width="190" height="50" as="geometry" />
        </mxCell>
        <mxCell id="5o9evlOY7vxnB9uBkV90-4" value="&lt;i&gt;Q&lt;/i&gt;" style="ellipse;whiteSpace=wrap;html=1;aspect=fixed;fontFamily=Times New Roman;fontSize=30;fillColor=#b3c7e9;strokeColor=#6c8ebf;" parent="1" vertex="1">
          <mxGeometry y="292" width="50" height="50" as="geometry" />
        </mxCell>
        <mxCell id="5o9evlOY7vxnB9uBkV90-6" value="&lt;i&gt;K&lt;/i&gt;" style="ellipse;whiteSpace=wrap;html=1;aspect=fixed;fontFamily=Times New Roman;fontSize=30;fillColor=#B3C7E9;strokeColor=#6c8ebf;" parent="1" vertex="1">
          <mxGeometry x="130" y="292" width="50" height="50" as="geometry" />
        </mxCell>
        <mxCell id="5o9evlOY7vxnB9uBkV90-21" style="edgeStyle=orthogonalEdgeStyle;rounded=0;orthogonalLoop=1;jettySize=auto;html=1;exitX=0.5;exitY=0;exitDx=0;exitDy=0;" parent="1" source="5o9evlOY7vxnB9uBkV90-8" edge="1">
          <mxGeometry relative="1" as="geometry">
            <mxPoint x="230" y="52" as="targetPoint" />
            <Array as="points">
              <mxPoint x="285" y="182" />
              <mxPoint x="231" y="182" />
            </Array>
          </mxGeometry>
        </mxCell>
        <mxCell id="5o9evlOY7vxnB9uBkV90-8" value="&lt;i&gt;V&lt;/i&gt;" style="ellipse;whiteSpace=wrap;html=1;aspect=fixed;fontFamily=Times New Roman;fontSize=30;fillColor=#B3C7E9;strokeColor=#6c8ebf;" parent="1" vertex="1">
          <mxGeometry x="260" y="292" width="50" height="50" as="geometry" />
        </mxCell>
        <mxCell id="5o9evlOY7vxnB9uBkV90-15" value="&lt;i&gt;O&lt;/i&gt;" style="ellipse;whiteSpace=wrap;html=1;aspect=fixed;fontFamily=Times New Roman;fontSize=30;fillColor=#fdde98;strokeColor=#9673a6;" parent="1" vertex="1">
          <mxGeometry x="205" y="2" width="50" height="50" as="geometry" />
        </mxCell>
        <mxCell id="5o9evlOY7vxnB9uBkV90-18" value="&lt;span style=&quot;font-style: normal;&quot;&gt;（a）&lt;/span&gt;" style="text;html=1;align=center;verticalAlign=middle;whiteSpace=wrap;rounded=0;fontFamily=Times New Roman;fontSize=20;fontStyle=2" parent="1" vertex="1">
          <mxGeometry x="125" y="362" width="60" height="30" as="geometry" />
        </mxCell>
        <mxCell id="5o9evlOY7vxnB9uBkV90-19" value="MatMul" style="rounded=0;whiteSpace=wrap;html=1;fontFamily=Times New Roman;fontSize=30;fontStyle=2;fillColor=#dae8fc;strokeColor=#82b366;" parent="1" vertex="1">
          <mxGeometry x="135" y="92" width="190" height="50" as="geometry" />
        </mxCell>
        <mxCell id="5o9evlOY7vxnB9uBkV90-22" style="edgeStyle=orthogonalEdgeStyle;rounded=0;orthogonalLoop=1;jettySize=auto;html=1;exitX=0.5;exitY=0;exitDx=0;exitDy=0;entryX=0.132;entryY=1.02;entryDx=0;entryDy=0;entryPerimeter=0;" parent="1" source="5o9evlOY7vxnB9uBkV90-4" target="5o9evlOY7vxnB9uBkV90-2" edge="1">
          <mxGeometry relative="1" as="geometry" />
        </mxCell>
        <mxCell id="5o9evlOY7vxnB9uBkV90-23" style="edgeStyle=orthogonalEdgeStyle;rounded=0;orthogonalLoop=1;jettySize=auto;html=1;exitX=0.5;exitY=0;exitDx=0;exitDy=0;entryX=0.811;entryY=1.01;entryDx=0;entryDy=0;entryPerimeter=0;" parent="1" source="5o9evlOY7vxnB9uBkV90-6" target="5o9evlOY7vxnB9uBkV90-2" edge="1">
          <mxGeometry relative="1" as="geometry" />
        </mxCell>
        <mxCell id="5o9evlOY7vxnB9uBkV90-39" style="edgeStyle=orthogonalEdgeStyle;rounded=0;orthogonalLoop=1;jettySize=auto;html=1;exitX=0.5;exitY=0;exitDx=0;exitDy=0;" parent="1" source="5o9evlOY7vxnB9uBkV90-26" edge="1">
          <mxGeometry relative="1" as="geometry">
            <mxPoint x="460" y="142" as="targetPoint" />
            <Array as="points">
              <mxPoint x="580" y="182" />
              <mxPoint x="461" y="182" />
            </Array>
          </mxGeometry>
        </mxCell>
        <mxCell id="5o9evlOY7vxnB9uBkV90-26" value="MatMul" style="rounded=0;whiteSpace=wrap;html=1;fontFamily=Times New Roman;fontSize=30;fontStyle=2;fillColor=#dae8fc;strokeColor=#82b366;" parent="1" vertex="1">
          <mxGeometry x="485" y="202" width="190" height="50" as="geometry" />
        </mxCell>
        <mxCell id="5o9evlOY7vxnB9uBkV90-38" style="edgeStyle=orthogonalEdgeStyle;rounded=0;orthogonalLoop=1;jettySize=auto;html=1;exitX=0.5;exitY=0;exitDx=0;exitDy=0;entryX=0.5;entryY=1;entryDx=0;entryDy=0;" parent="1" source="5o9evlOY7vxnB9uBkV90-27" target="5o9evlOY7vxnB9uBkV90-33" edge="1">
          <mxGeometry relative="1" as="geometry">
            <Array as="points">
              <mxPoint x="375" y="182" />
              <mxPoint x="460" y="182" />
            </Array>
          </mxGeometry>
        </mxCell>
        <mxCell id="5o9evlOY7vxnB9uBkV90-27" value="&lt;i&gt;Q&lt;/i&gt;" style="ellipse;whiteSpace=wrap;html=1;aspect=fixed;fontFamily=Times New Roman;fontSize=30;fillColor=#b3c7e9;strokeColor=#6c8ebf;" parent="1" vertex="1">
          <mxGeometry x="350" y="292" width="50" height="50" as="geometry" />
        </mxCell>
        <mxCell id="5o9evlOY7vxnB9uBkV90-36" style="edgeStyle=orthogonalEdgeStyle;rounded=0;orthogonalLoop=1;jettySize=auto;html=1;exitX=0.5;exitY=0;exitDx=0;exitDy=0;entryX=0.5;entryY=1;entryDx=0;entryDy=0;" parent="1" source="5o9evlOY7vxnB9uBkV90-28" target="5o9evlOY7vxnB9uBkV90-26" edge="1">
          <mxGeometry relative="1" as="geometry" />
        </mxCell>
        <mxCell id="5o9evlOY7vxnB9uBkV90-28" value="&lt;i&gt;K&lt;/i&gt;" style="ellipse;whiteSpace=wrap;html=1;aspect=fixed;fontFamily=Times New Roman;fontSize=30;fillColor=#B3C7E9;strokeColor=#6c8ebf;" parent="1" vertex="1">
          <mxGeometry x="480" y="292" width="50" height="50" as="geometry" />
        </mxCell>
        <mxCell id="5o9evlOY7vxnB9uBkV90-37" style="edgeStyle=orthogonalEdgeStyle;rounded=0;orthogonalLoop=1;jettySize=auto;html=1;exitX=0.5;exitY=0;exitDx=0;exitDy=0;entryX=0.5;entryY=1;entryDx=0;entryDy=0;" parent="1" source="5o9evlOY7vxnB9uBkV90-30" target="5o9evlOY7vxnB9uBkV90-26" edge="1">
          <mxGeometry relative="1" as="geometry" />
        </mxCell>
        <mxCell id="5o9evlOY7vxnB9uBkV90-30" value="&lt;i&gt;V&lt;/i&gt;" style="ellipse;whiteSpace=wrap;html=1;aspect=fixed;fontFamily=Times New Roman;fontSize=30;fillColor=#B3C7E9;strokeColor=#6c8ebf;" parent="1" vertex="1">
          <mxGeometry x="610" y="292" width="50" height="50" as="geometry" />
        </mxCell>
        <mxCell id="5o9evlOY7vxnB9uBkV90-31" value="&lt;i&gt;O&lt;/i&gt;" style="ellipse;whiteSpace=wrap;html=1;aspect=fixed;fontFamily=Times New Roman;fontSize=30;fillColor=#fdde98;strokeColor=#9673a6;" parent="1" vertex="1">
          <mxGeometry x="435" y="2" width="50" height="50" as="geometry" />
        </mxCell>
        <mxCell id="5o9evlOY7vxnB9uBkV90-32" value="&lt;span style=&quot;font-style: normal;&quot;&gt;（b）&lt;/span&gt;" style="text;html=1;align=center;verticalAlign=middle;whiteSpace=wrap;rounded=0;fontFamily=Times New Roman;fontSize=20;fontStyle=2" parent="1" vertex="1">
          <mxGeometry x="475" y="362" width="60" height="30" as="geometry" />
        </mxCell>
        <mxCell id="5o9evlOY7vxnB9uBkV90-40" style="edgeStyle=orthogonalEdgeStyle;rounded=0;orthogonalLoop=1;jettySize=auto;html=1;exitX=0.5;exitY=0;exitDx=0;exitDy=0;entryX=0.5;entryY=1;entryDx=0;entryDy=0;" parent="1" source="5o9evlOY7vxnB9uBkV90-33" target="5o9evlOY7vxnB9uBkV90-31" edge="1">
          <mxGeometry relative="1" as="geometry" />
        </mxCell>
        <mxCell id="5o9evlOY7vxnB9uBkV90-33" value="MatMul" style="rounded=0;whiteSpace=wrap;html=1;fontFamily=Times New Roman;fontSize=30;fontStyle=2;fillColor=#dae8fc;strokeColor=#82b366;" parent="1" vertex="1">
          <mxGeometry x="365" y="92" width="190" height="50" as="geometry" />
        </mxCell>
        <mxCell id="0lwmkpiGMT7b7zlXYu0x-1" value="" style="endArrow=none;dashed=1;html=1;rounded=0;strokeWidth=2;" edge="1" parent="1">
          <mxGeometry width="50" height="50" relative="1" as="geometry">
            <mxPoint x="338" y="392" as="sourcePoint" />
            <mxPoint x="338" y="2" as="targetPoint" />
          </mxGeometry>
        </mxCell>
      </root>
    </mxGraphModel>
  </diagram>
</mxfile>
